<?xml version="1.0" standalone="no"?>
<!DOCTYPE svg PUBLIC "-//W3C//DTD SVG 20010904//EN"
 "http://www.w3.org/TR/2001/REC-SVG-20010904/DTD/svg10.dtd">
<svg version="1.0" xmlns="http://www.w3.org/2000/svg"
 width="247.000000pt" height="113.000000pt" viewBox="0 0 247.000000 113.000000"
 preserveAspectRatio="xMidYMid meet">

<g transform="translate(0.000000,113.000000) scale(0.100000,-0.100000)"
fill="#000000" stroke="none">
<path d="M0 565 l0 -565 1235 0 1235 0 0 565 0 565 -1235 0 -1235 0 0 -565z
m390 379 c0 -28 -49 -84 -74 -84 -34 0 -7 73 35 96 34 19 39 17 39 -12z m-90
-105 c8 0 42 3 75 7 53 5 63 3 83 -16 l23 -22 -23 -25 c-35 -37 -32 -102 7
-143 l29 -31 -19 -35 c-25 -46 -63 -84 -86 -84 -10 0 -30 5 -45 11 -20 7 -42
7 -75 -1 -36 -9 -53 -9 -69 0 -32 17 -77 95 -91 155 -16 72 -5 121 37 163 33
33 37 34 87 28 28 -4 59 -7 67 -7z m369 -94 c30 -127 30 -129 37 -122 3 3 18
54 33 114 l27 108 39 0 39 0 26 -107 c15 -60 29 -111 33 -114 8 -8 9 -6 38
121 l24 100 39 3 c36 3 38 2 33 -20 -8 -40 -88 -322 -93 -329 -6 -10 -62 -5
-73 7 -4 5 -21 58 -37 119 l-28 109 -18 -64 c-50 -174 -50 -174 -87 -174 -32
0 -36 4 -47 40 -19 59 -84 298 -84 307 0 5 17 7 37 5 l38 -3 24 -100z m633
-45 c26 -80 51 -160 54 -177 6 -32 5 -33 -23 -29 -42 4 -50 11 -57 51 l-7 35
-57 0 -58 0 -15 -42 c-16 -42 -40 -56 -68 -38 -12 7 -7 34 34 157 69 215 58
195 107 191 l43 -3 47 -145z m348 120 c0 -29 -1 -30 -50 -30 l-50 0 0 -143 c0
-79 -2 -146 -5 -148 -2 -3 -20 -3 -40 -1 l-35 4 0 144 0 144 -50 0 c-49 0 -50
1 -50 30 l0 30 140 0 140 0 0 -30z m277 10 c30 -18 63 -65 63 -90 0 -5 -18
-10 -40 -10 -24 0 -40 5 -40 12 0 37 -59 60 -100 38 -35 -19 -52 -117 -30
-174 23 -61 101 -69 128 -13 10 22 20 27 48 27 41 0 44 -18 14 -68 -38 -62
-146 -80 -209 -35 -47 35 -63 79 -58 169 4 86 15 113 64 145 38 26 118 25 160
-1z m213 -50 l0 -70 70 0 69 0 3 68 3 67 35 0 35 0 3 -172 c2 -168 2 -173 -18
-174 -11 -1 -28 -2 -37 -3 -15 -1 -18 10 -21 72 l-3 72 -69 0 -70 0 0 -69 c0
-66 -1 -69 -26 -75 -50 -13 -54 2 -54 179 0 89 3 165 7 168 3 4 21 7 40 7 l33
0 0 -70z"/>
<path d="M1186 706 c-9 -30 -16 -57 -16 -60 0 -3 16 -6 35 -6 19 0 35 4 35 9
0 24 -24 111 -31 111 -4 0 -15 -24 -23 -54z"/>
</g>
</svg>
